<svg id="fix_1" style="fill: white;" enable-background="new 0 0 50 24" height="512" viewBox="0 0 24 24" width="512" xmlns="http://www.w3.org/2000/svg"><path d="m8.45 12.05c-.178 0-.35-.095-.44-.263l-5.95-11.05c-.083-.155-.08-.342.01-.493.091-.152.254-.244.43-.244h5c.184 0 .354.101.44.263l5.42 10.07c.131.243.04.546-.203.677-.245.13-.546.04-.678-.204l-5.278-9.806h-3.864l5.554 10.312c.131.243.04.546-.203.678-.076.041-.158.06-.238.06z"/><path d="m15.55 12.05c-.08 0-.162-.019-.237-.06-.243-.131-.334-.435-.203-.678l5.553-10.312h-3.864l-4.359 8.097c-.131.243-.432.334-.677.203-.243-.131-.334-.434-.203-.677l4.5-8.36c.086-.162.256-.263.44-.263h5c.176 0 .339.092.43.244.09.151.094.338.011.494l-5.95 11.049c-.092.168-.263.263-.441.263z"/><path d="m12 24c-3.859 0-7-3.14-7-7s3.141-7 7-7 7 3.14 7 7-3.141 7-7 7zm0-13c-3.309 0-6 2.691-6 6s2.691 6 6 6 6-2.691 6-6-2.691-6-6-6z"/><path d="m14.163 21c-.083 0-.166-.021-.242-.062l-1.921-1.063-1.921 1.062c-.168.094-.374.082-.53-.029s-.236-.3-.205-.489l.372-2.284-1.573-1.613c-.131-.134-.176-.33-.117-.508.06-.178.214-.307.399-.335l2.154-.33.969-2.062c.164-.352.74-.352.904 0l.969 2.062 2.154.33c.186.028.34.158.399.335.059.178.014.374-.117.508l-1.573 1.613.372 2.284c.031.189-.049.379-.205.489-.086.061-.186.092-.288.092zm-2.163-2.196c.083 0 .167.021.242.062l1.262.698-.247-1.517c-.025-.157.024-.316.136-.43l1.07-1.097-1.456-.223c-.165-.025-.307-.131-.377-.282l-.63-1.339-.63 1.34c-.07.151-.212.257-.377.282l-1.456.223 1.07 1.097c.111.113.161.273.136.43l-.247 1.517 1.262-.698c.075-.042.159-.063.242-.063z"/></svg>