<svg style="fill: #EFE60B;" id="Layer_1" enable-background="new 0 0 512 512" height="512" viewBox="0 0 512 512" width="512" xmlns="http://www.w3.org/2000/svg"><path d="m237.795 467.816-193.604-193.607c-58.766-58.769-59.076-154.102 0-213.181l56.638-56.639c6.433-6.435 17.121-5.706 22.605 1.606l96.392 128.525c4.479 5.971 3.884 14.327-1.393 19.605l-57.61 57.612c-6.685 6.685-6.696 17.526 0 24.222l115.22 115.223c6.685 6.683 17.525 6.694 24.223-.001l57.61-57.611c5.279-5.279 13.635-5.871 19.605-1.393l128.523 96.393c7.298 5.474 8.057 16.156 1.606 22.605l-56.639 56.64c-58.873 58.874-154.226 58.952-213.176.001z"/></svg>